<?xml version="1.0" encoding="utf-8"?>
<!-- Generator: Adobe Illustrator 24.2.1, SVG Export Plug-In . SVG Version: 6.00 Build 0)  -->
<svg version="1.1" id="Layer_1" xmlns="http://www.w3.org/2000/svg" xmlns:xlink="http://www.w3.org/1999/xlink" x="0px" y="0px"
	 viewBox="0 0 1280 640" style="enable-background:new 0 0 1280 640;" xml:space="preserve">
<style type="text/css">
	.st0{fill:#FF5A5F;}
</style>
<g>
	<path class="st0" d="M470.1,440.2c0-26.9-0.2-53.8,0.1-80.6c0.1-7.1-1.3-11-9.5-9.4c-3.9,0.7-8,0.2-12.1,0.3
		c-24,0.6-36.5-10.4-38.8-34.3c-2.1-21.2,3.5-39.2,19.3-54.8C486,205.2,542.3,148.4,598.9,91.9c25.1-25.1,56.8-25.1,82,0
		c56.8,56.8,113.6,113.5,170.3,170.4c21.2,21.2,25.5,53.4,10.9,76.6c-5.2,8.2-11.8,12.5-21.6,11.6c-6.3-0.6-12.8-0.5-19.1-1.5
		c-8.7-1.3-12.1,1.4-12,10.6c0.3,50.7-0.9,101.5,0.5,152.2c0.8,29.7-21,57.5-55.2,54.9c-17.4-1.3-34.9-0.1-52.4-0.3
		c-12.4-0.1-16.3-4-16.4-16.3c-0.1-32.3,0-64.5-0.1-96.8c0-22.6-7.9-30.4-30.2-30.3c-11.1,0-22.2,0-33.3,0
		c-20.2-0.1-28.6,8.2-28.7,28.8c-0.1,31.2,0,62.5,0,93.7c0,18.5-2.5,20.9-20.9,20.9c-18.5,0-37,0.1-55.4,0
		c-26.4-0.2-47.6-22.2-47.3-48.7C470.1,491.9,470.1,466,470.1,440.2z M495,429.1c0,27.9-0.1,55.8,0,83.6
		c0.1,19.4,9.6,28.9,29.2,29.1c11.1,0.1,22.2-0.4,33.2,0.2c8.8,0.4,11.8-2.7,11.6-11.6c-0.4-27.5-0.2-55.1-0.1-82.6
		c0.1-29.6,21-50.6,50.7-51.1c12.8-0.2,25.5-0.1,38.3,0c32.2,0.2,52.7,20.8,52.8,53.2c0.1,26.9,0.3,53.7-0.1,80.6
		c-0.2,8.9,3,12,11.7,11.5c9.7-0.6,19.5-0.1,29.2-0.1c24.9-0.1,33.1-8.4,33.1-33.5c0-55.1,0-110.2,0-165.2
		c0-14.2,4.5-18.8,18.5-19.2c7.7-0.2,15.4,0,23.2,0.1c16.5,0.3,20.1-3.5,18.9-20c-0.6-7.6-3.1-14.4-8.6-19.9
		c-59.2-59.1-118.2-118.3-177.5-177.3c-11.7-11.6-27.1-11.5-38.7,0c-59.3,59-118.3,118.2-177.4,177.4c-9,9-9.9,20.1-7.5,31.9
		c1.1,5.4,4.3,7.9,10,7.8c10.4-0.2,20.8-0.2,31.2,0c13.5,0.3,18.2,5.1,18.2,18.4C495,371.3,495,400.2,495,429.1z"/>
</g>
</svg>
